# xmcd
#
# Track frame offsets:
#	150
#	16494
#	35938
#	50199
#	73161
#	94887
#	111691
#	133462
#	150637
#	171991
#	189312
#	202598
#
# Disc length: 2926 seconds
#
# Revision: 0
# Processed by: cddbd v1.4PL0 Copyright (c) Steve Scherf et al.
# Submitted via: dBpowerAMP V4.0
#
DISCID=b90b6c0c
DTITLE=Kopstubbers - Not Normal Anymore
DYEAR=2003
DGENRE=Blues
TTITLE0=Zuwwe even daansen
TTITLE1=Wichie vort
TTITLE2=Drents Hooglied
TTITLE3=Not Normal Anymore!
TTITLE4=Heuibrui
TTITLE5=Ienzaom en ellendig
TTITLE6=Kleine hendiekep
TTITLE7=Alles mut veraandern
TTITLE8=Wichies
TTITLE9=Kruuspunt
TTITLE10=In de diskotheek
TTITLE11=Groeten uit Grolloo
EXTD=Blues uit Holland\nLive opgenomen 30 januari 2003 in de Ponderosa in Assen
EXTT0=
EXTT1=
EXTT2=
EXTT3=
EXTT4=
EXTT5=
EXTT6=
EXTT7=
EXTT8=
EXTT9=
EXTT10=
EXTT11=
PLAYORDER=
